<?xml version="1.0" encoding="UTF-8" standalone="no"?>
<svg width="64px" height="32px" viewBox="0 0 64 32" version="1.1" xmlns="http://www.w3.org/2000/svg" xmlns:xlink="http://www.w3.org/1999/xlink">
    <!-- Generator: Sketch 39.1 (31720) - http://www.bohemiancoding.com/sketch -->
    <title>Slice 1</title>
    <desc>Created with Sketch.</desc>
    <defs></defs>
    <g id="Page-1" stroke="none" stroke-width="1" fill="none" fill-rule="evenodd">
        <g id="spinner_bg">
            <g id="BackgroundRedLine">
                <g id="Page-1">
                    <g id="iPhone-6">
                        <g id="BackgroundRedLine">
                            <circle id="LoaderBG" stroke-opacity="0" stroke="#000000" stroke-width="4" fill="#FFFFFF" cx="32" cy="32" r="32"></circle>
                            <path d="M32,56 C45.254834,56 56,45.254834 56,32 C56,18.745166 45.254834,8 32,8 C18.745166,8 8,18.745166 8,32 C8,45.254834 18.745166,56 32,56 L32,56 Z M32,52 C43.045695,52 52,43.045695 52,32 C52,20.954305 43.045695,12 32,12 C20.954305,12 12,20.954305 12,32 C12,43.045695 20.954305,52 32,52 L32,52 Z" id="LoaderRedCircle" fill="#32065B"></path>
                        </g>
                    </g>
                </g>
            </g>
        </g>
    </g>
</svg>